<svg id="visual" viewBox="0 0 960 540" width="960" height="540" xmlns="http://www.w3.org/2000/svg" xmlns:xlink="http://www.w3.org/1999/xlink" version="1.1"><rect x="0" y="0" width="960" height="540" fill="#141533"></rect><defs><linearGradient id="grad1_0" x1="43.8%" y1="0%" x2="100%" y2="100%"><stop offset="14.444444444444446%" stop-color="#ffffff" stop-opacity="1"></stop><stop offset="85.55555555555554%" stop-color="#ffffff" stop-opacity="1"></stop></linearGradient></defs><defs><linearGradient id="grad1_1" x1="43.8%" y1="0%" x2="100%" y2="100%"><stop offset="14.444444444444446%" stop-color="#ffffff" stop-opacity="1"></stop><stop offset="85.55555555555554%" stop-color="#bfbdc8" stop-opacity="1"></stop></linearGradient></defs><defs><linearGradient id="grad1_2" x1="43.8%" y1="0%" x2="100%" y2="100%"><stop offset="14.444444444444446%" stop-color="#827f93" stop-opacity="1"></stop><stop offset="85.55555555555554%" stop-color="#bfbdc8" stop-opacity="1"></stop></linearGradient></defs><defs><linearGradient id="grad1_3" x1="43.8%" y1="0%" x2="100%" y2="100%"><stop offset="14.444444444444446%" stop-color="#827f93" stop-opacity="1"></stop><stop offset="85.55555555555554%" stop-color="#494761" stop-opacity="1"></stop></linearGradient></defs><defs><linearGradient id="grad1_4" x1="43.8%" y1="0%" x2="100%" y2="100%"><stop offset="14.444444444444446%" stop-color="#141533" stop-opacity="1"></stop><stop offset="85.55555555555554%" stop-color="#494761" stop-opacity="1"></stop></linearGradient></defs><defs><linearGradient id="grad2_0" x1="0%" y1="0%" x2="56.3%" y2="100%"><stop offset="14.444444444444446%" stop-color="#ffffff" stop-opacity="1"></stop><stop offset="85.55555555555554%" stop-color="#ffffff" stop-opacity="1"></stop></linearGradient></defs><defs><linearGradient id="grad2_1" x1="0%" y1="0%" x2="56.3%" y2="100%"><stop offset="14.444444444444446%" stop-color="#bfbdc8" stop-opacity="1"></stop><stop offset="85.55555555555554%" stop-color="#ffffff" stop-opacity="1"></stop></linearGradient></defs><defs><linearGradient id="grad2_2" x1="0%" y1="0%" x2="56.3%" y2="100%"><stop offset="14.444444444444446%" stop-color="#bfbdc8" stop-opacity="1"></stop><stop offset="85.55555555555554%" stop-color="#827f93" stop-opacity="1"></stop></linearGradient></defs><defs><linearGradient id="grad2_3" x1="0%" y1="0%" x2="56.3%" y2="100%"><stop offset="14.444444444444446%" stop-color="#494761" stop-opacity="1"></stop><stop offset="85.55555555555554%" stop-color="#827f93" stop-opacity="1"></stop></linearGradient></defs><defs><linearGradient id="grad2_4" x1="0%" y1="0%" x2="56.3%" y2="100%"><stop offset="14.444444444444446%" stop-color="#494761" stop-opacity="1"></stop><stop offset="85.55555555555554%" stop-color="#141533" stop-opacity="1"></stop></linearGradient></defs><g transform="translate(960, 0)"><path d="M0 405C-76.6 397.7 -153.2 390.5 -202.5 350.7C-251.8 311 -273.9 238.9 -303.1 175C-332.3 111.1 -368.7 55.6 -405 0L0 0Z" fill="#2e2d49"></path><path d="M0 324C-61.3 318.2 -122.5 312.4 -162 280.6C-201.5 248.8 -219.1 191.1 -242.5 140C-265.9 88.9 -294.9 44.5 -324 0L0 0Z" fill="#656279"></path><path d="M0 243C-46 238.6 -91.9 234.3 -121.5 210.4C-151.1 186.6 -164.3 143.3 -181.9 105C-199.4 66.7 -221.2 33.3 -243 0L0 0Z" fill="#a09ead"></path><path d="M0 162C-30.6 159.1 -61.3 156.2 -81 140.3C-100.7 124.4 -109.6 95.5 -121.2 70C-132.9 44.5 -147.5 22.2 -162 0L0 0Z" fill="#dedee3"></path><path d="M0 81C-15.3 79.5 -30.6 78.1 -40.5 70.1C-50.4 62.2 -54.8 47.8 -60.6 35C-66.5 22.2 -73.7 11.1 -81 0L0 0Z" fill="#ffffff"></path></g><g transform="translate(0, 540)"><path d="M0 -405C73.2 -395.8 146.5 -386.6 202.5 -350.7C258.5 -314.9 297.3 -252.4 328.2 -189.5C359.1 -126.6 382.1 -63.3 405 0L0 0Z" fill="#2e2d49"></path><path d="M0 -324C58.6 -316.6 117.2 -309.3 162 -280.6C206.8 -251.9 237.9 -201.9 262.6 -151.6C287.3 -101.3 305.6 -50.6 324 0L0 0Z" fill="#656279"></path><path d="M0 -243C43.9 -237.5 87.9 -232 121.5 -210.4C155.1 -188.9 178.4 -151.4 196.9 -113.7C215.5 -76 229.2 -38 243 0L0 0Z" fill="#a09ead"></path><path d="M0 -162C29.3 -158.3 58.6 -154.6 81 -140.3C103.4 -126 118.9 -101 131.3 -75.8C143.6 -50.6 152.8 -25.3 162 0L0 0Z" fill="#dedee3"></path><path d="M0 -81C14.6 -79.2 29.3 -77.3 40.5 -70.1C51.7 -63 59.5 -50.5 65.6 -37.9C71.8 -25.3 76.4 -12.7 81 0L0 0Z" fill="#ffffff"></path></g></svg>